<svg width="487" height="273" viewBox="0 0 487 273" fill="none" xmlns="http://www.w3.org/2000/svg">
  <defs>
    <linearGradient id="creatorGradient" x1="0%" y1="0%" x2="100%" y2="100%">
      <stop offset="0%" style="stop-color:#ff9a9e;stop-opacity:1" />
      <stop offset="100%" style="stop-color:#fecfef;stop-opacity:1" />
    </linearGradient>
    <linearGradient id="studioGradient" x1="0%" y1="0%" x2="100%" y2="100%">
      <stop offset="0%" style="stop-color:#667eea;stop-opacity:1" />
      <stop offset="100%" style="stop-color:#764ba2;stop-opacity:1" />
    </linearGradient>
    <linearGradient id="creativeGradient" x1="0%" y1="0%" x2="100%" y2="100%">
      <stop offset="0%" style="stop-color:#ffecd2;stop-opacity:1" />
      <stop offset="50%" style="stop-color:#fcb69f;stop-opacity:1" />
      <stop offset="100%" style="stop-color:#ff9a9e;stop-opacity:1" />
    </linearGradient>
    <radialGradient id="pulseGradient" cx="50%" cy="50%" r="50%">
      <stop offset="0%" style="stop-color:#667eea;stop-opacity:0.8" />
      <stop offset="100%" style="stop-color:#667eea;stop-opacity:0.1" />
    </radialGradient>
  </defs>
  
  <!-- Creative Studio Framework -->
  <line x1="140.5" y1="0" x2="140.5" y2="273" stroke="url(#creatorGradient)" stroke-opacity="0.3" stroke-width="2"/>
  <line x1="343.5" y1="0" x2="343.5" y2="273" stroke="url(#creatorGradient)" stroke-opacity="0.3" stroke-width="2"/>
  
  <!-- Mood Adaptive Circle -->
  <circle cx="244" cy="180" r="120" stroke="url(#pulseGradient)" stroke-width="3" fill="none" opacity="0.4"/>
  
  <!-- Creator Workspace Lines -->
  <line x1="151" y1="20" x2="332" y2="20" stroke="url(#studioGradient)" stroke-opacity="0.6" stroke-width="2"/>
  <polygon points="140,20 152,16 152,24" fill="url(#studioGradient)" opacity="0.6"/>
  <polygon points="343,20 331,16 331,24" fill="url(#studioGradient)" opacity="0.6"/>
  
  <!-- Adaptive AI Core -->
  <circle cx="244" cy="180" r="65" fill="url(#creatorGradient)" opacity="0.8" stroke="url(#studioGradient)" stroke-width="2"/>
  
  <!-- Inner Creative Engine -->
  <circle cx="244" cy="180" r="40" fill="url(#studioGradient)" opacity="0.6"/>
  <circle cx="244" cy="180" r="25" fill="white" opacity="0.9"/>
  <circle cx="244" cy="180" r="12" fill="url(#creativeGradient)"/>
  
  <!-- Creative Process Indicators -->
  <circle cx="190" cy="140" r="8" fill="#ff6b6b" opacity="0.8"/>
  <circle cx="298" cy="140" r="8" fill="#4ecdc4" opacity="0.8"/>
  <circle cx="190" cy="220" r="8" fill="#45b7d1" opacity="0.8"/>
  <circle cx="298" cy="220" r="8" fill="#96ceb4" opacity="0.8"/>
  
  <!-- Connection Web -->
  <path d="M190 140 Q244 90, 298 140 Q350 180, 298 220 Q244 270, 190 220 Q140 180, 190 140" 
        stroke="url(#creatorGradient)" stroke-width="1.5" fill="none" opacity="0.4"/>
  
  <!-- Mood Indicator Rings -->
  <circle cx="220.5" cy="250" r="40" stroke="#ff6b6b" stroke-width="2" fill="none" opacity="0.3"/>
  <circle cx="267.5" cy="250" r="40" stroke="#4ecdc4" stroke-width="2" fill="none" opacity="0.3"/>
  
  <!-- Creative Output Stream -->
  <line x1="381" y1="105" x2="381" y2="255" stroke="url(#creativeGradient)" stroke-opacity="0.5" stroke-width="2"/>
  <polygon points="381,95 375,107 387,107" fill="url(#creativeGradient)" opacity="0.5"/>
  
  <!-- AI App Creation Nodes -->
  <rect x="370" y="120" width="22" height="15" rx="3" fill="url(#studioGradient)" opacity="0.7"/>
  <rect x="370" y="145" width="22" height="15" rx="3" fill="url(#creatorGradient)" opacity="0.7"/>
  <rect x="370" y="170" width="22" height="15" rx="3" fill="url(#creativeGradient)" opacity="0.7"/>
  <rect x="370" y="195" width="22" height="15" rx="3" fill="url(#studioGradient)" opacity="0.7"/>
  
  <!-- Creative Branch Lines -->
  <line x1="237" y1="104" x2="403" y2="104" stroke="url(#creativeGradient)" stroke-opacity="0.4" stroke-width="1.5"/>
</svg>