<svg width="441" height="312" viewBox="0 0 441 312" fill="none" xmlns="http://www.w3.org/2000/svg">
  <defs>
    <linearGradient id="chatGradient" x1="0%" y1="0%" x2="100%" y2="100%">
      <stop offset="0%" style="stop-color:#a8edea;stop-opacity:1" />
      <stop offset="100%" style="stop-color:#fed6e3;stop-opacity:1" />
    </linearGradient>
    <linearGradient id="aiChatGradient" x1="0%" y1="0%" x2="100%" y2="100%">
      <stop offset="0%" style="stop-color:#667eea;stop-opacity:1" />
      <stop offset="100%" style="stop-color:#764ba2;stop-opacity:1" />
    </linearGradient>
    <linearGradient id="moodChatGradient" x1="0%" y1="0%" x2="100%" y2="100%">
      <stop offset="0%" style="stop-color:#ffecd2;stop-opacity:1" />
      <stop offset="100%" style="stop-color:#fcb69f;stop-opacity:1" />
    </linearGradient>
  </defs>
  
  <!-- Main Chat Interface -->
  <rect x="217" y="17" width="217" height="67" rx="22" fill="url(#chatGradient)" opacity="0.8"/>
  <rect x="220" y="20" width="211" height="61" rx="20" stroke="white" stroke-width="1" fill="none" opacity="0.3"/>
  
  <!-- AI Response Indicator -->
  <circle cx="245" cy="50" r="8" fill="url(#aiChatGradient)" opacity="0.9"/>
  <circle cx="245" cy="50" r="4" fill="white" opacity="0.8"/>
  
  <!-- Chat Message Bubbles -->
  <rect x="0" y="111" width="434" height="201" rx="21" fill="white" opacity="0.05"/>
  <rect x="1" y="112" width="432" height="199" rx="20" stroke="black" stroke-opacity="0.1"/>
  
  <!-- User Message -->
  <rect x="250" y="140" width="170" height="40" rx="20" fill="url(#moodChatGradient)" opacity="0.7"/>
  <rect x="260" y="150" width="120" height="4" rx="2" fill="white" opacity="0.6"/>
  <rect x="260" y="158" width="80" height="4" rx="2" fill="white" opacity="0.4"/>
  <rect x="260" y="166" width="100" height="4" rx="2" fill="white" opacity="0.4"/>
  
  <!-- AI Response -->
  <rect x="20" y="190" width="180" height="50" rx="20" fill="url(#aiChatGradient)" opacity="0.7"/>
  <rect x="30" y="200" width="130" height="4" rx="2" fill="white" opacity="0.6"/>
  <rect x="30" y="208" width="90" height="4" rx="2" fill="white" opacity="0.4"/>
  <rect x="30" y="216" width="110" height="4" rx="2" fill="white" opacity="0.4"/>
  <rect x="30" y="224" width="70" height="4" rx="2" fill="white" opacity="0.4"/>
  
  <!-- Mood Adaptive Response -->
  <rect x="220" y="250" width="190" height="35" rx="18" fill="url(#chatGradient)" opacity="0.6"/>
  <circle cx="240" cy="267" r="5" fill="#ff6b6b" opacity="0.8"/>
  <circle cx="250" cy="267" r="5" fill="#4ecdc4" opacity="0.8"/>
  <circle cx="260" cy="267" r="5" fill="#45b7d1" opacity="0.8"/>
  
  <!-- Code Suggestion Panel -->
  <rect x="376" y="125" width="43" height="43" rx="14" fill="url(#aiChatGradient)" opacity="0.6"/>
  <path d="M388 135 L393 140 L388 145 M393 140 L403 140" stroke="white" stroke-width="1.5" fill="none" opacity="0.8"/>
  <rect x="385" y="150" width="15" height="2" rx="1" fill="white" opacity="0.5"/>
  <rect x="385" y="155" width="10" height="2" rx="1" fill="white" opacity="0.5"/>
  
  <!-- Typing Indicator -->
  <circle cx="40" cy="280" r="3" fill="url(#aiChatGradient)" opacity="0.8">
    <animate attributeName="opacity" values="0.3;1;0.3" dur="1.5s" repeatCount="indefinite"/>
  </circle>
  <circle cx="50" cy="280" r="3" fill="url(#aiChatGradient)" opacity="0.6">
    <animate attributeName="opacity" values="0.3;1;0.3" dur="1.5s" begin="0.3s" repeatCount="indefinite"/>
  </circle>
  <circle cx="60" cy="280" r="3" fill="url(#aiChatGradient)" opacity="0.4">
    <animate attributeName="opacity" values="0.3;1;0.3" dur="1.5s" begin="0.6s" repeatCount="indefinite"/>
  </circle>
</svg>