<svg width="420" height="280" viewBox="0 0 420 280" fill="none" xmlns="http://www.w3.org/2000/svg">
  <defs>
    <linearGradient id="launchGradient" x1="0%" y1="100%" x2="100%" y2="0%">
      <stop offset="0%" style="stop-color:#667eea;stop-opacity:1" />
      <stop offset="100%" style="stop-color:#764ba2;stop-opacity:1" />
    </linearGradient>
    <linearGradient id="rocketGradient" x1="0%" y1="0%" x2="100%" y2="100%">
      <stop offset="0%" style="stop-color:#ff9a9e;stop-opacity:1" />
      <stop offset="100%" style="stop-color:#fecfef;stop-opacity:1" />
    </linearGradient>
    <linearGradient id="thrustGradient" x1="0%" y1="0%" x2="0%" y2="100%">
      <stop offset="0%" style="stop-color:#ff6b6b;stop-opacity:0.8" />
      <stop offset="50%" style="stop-color:#4ecdc4;stop-opacity:0.6" />
      <stop offset="100%" style="stop-color:#45b7d1;stop-opacity:0.3" />
    </linearGradient>
    <radialGradient id="blastGradient" cx="50%" cy="100%" r="60%">
      <stop offset="0%" style="stop-color:#ff6b6b;stop-opacity:0.9" />
      <stop offset="50%" style="stop-color:#4ecdc4;stop-opacity:0.5" />
      <stop offset="100%" style="stop-color:#45b7d1;stop-opacity:0.1" />
    </radialGradient>
  </defs>
  
  <!-- Launch Trajectory -->
  <path d="M50 250 Q150 200, 210 50 Q270 20, 350 10" stroke="url(#launchGradient)" stroke-width="3" fill="none" opacity="0.4" stroke-dasharray="10,5"/>
  
  <!-- Main Rocket Body -->
  <ellipse cx="210" cy="100" rx="25" ry="80" fill="url(#rocketGradient)" opacity="0.9"/>
  <ellipse cx="210" cy="85" rx="20" ry="60" fill="white" opacity="0.3"/>
  
  <!-- Rocket Nose -->
  <path d="M185 40 Q210 10, 235 40 L210 65 Z" fill="url(#launchGradient)"/>
  
  <!-- VibeStudio Logo on Rocket -->
  <circle cx="210" cy="100" r="12" fill="url(#launchGradient)" opacity="0.8"/>
  <circle cx="210" cy="100" r="8" fill="white" opacity="0.9"/>
  <circle cx="210" cy="100" r="4" fill="url(#rocketGradient)"/>
  
  <!-- Rocket Fins -->
  <path d="M185 160 L190 180 L210 175 L210 160 Z" fill="url(#launchGradient)" opacity="0.7"/>
  <path d="M235 160 L230 180 L210 175 L210 160 Z" fill="url(#launchGradient)" opacity="0.7"/>
  
  <!-- Engine Thrust -->
  <ellipse cx="210" cy="200" rx="20" ry="40" fill="url(#blastGradient)"/>
  <ellipse cx="210" cy="210" rx="15" ry="30" fill="url(#thrustGradient)"/>
  <ellipse cx="210" cy="220" rx="10" ry="20" fill="#ff6b6b" opacity="0.6"/>
  
  <!-- Launch Platform -->
  <rect x="150" y="240" width="120" height="20" rx="10" fill="url(#launchGradient)" opacity="0.6"/>
  <rect x="160" y="235" width="100" height="5" rx="2" fill="white" opacity="0.4"/>
  
  <!-- Support Towers -->
  <rect x="120" y="180" width="8" height="80" fill="url(#launchGradient)" opacity="0.5"/>
  <rect x="292" y="180" width="8" height="80" fill="url(#launchGradient)" opacity="0.5"/>
  
  <!-- Launch Clouds -->
  <circle cx="180" cy="230" r="15" fill="white" opacity="0.7"/>
  <circle cx="240" cy="235" r="18" fill="white" opacity="0.6"/>
  <circle cx="160" cy="245" r="12" fill="white" opacity="0.5"/>
  <circle cx="260" cy="250" r="14" fill="white" opacity="0.4"/>
  
  <!-- AI App Icons Launching -->
  <circle cx="320" cy="60" r="8" fill="#4ecdc4" opacity="0.8"/>
  <rect x="315" y="55" width="10" height="10" rx="2" fill="white" opacity="0.6"/>
  
  <circle cx="350" cy="40" r="6" fill="#ff6b6b" opacity="0.8"/>
  <rect x="347" y="37" width="6" height="6" rx="1" fill="white" opacity="0.6"/>
  
  <circle cx="380" cy="30" r="5" fill="#45b7d1" opacity="0.8"/>
  <rect x="378" y="28" width="4" height="4" rx="1" fill="white" opacity="0.6"/>
  
  <!-- Success Particles -->
  <circle cx="300" cy="80" r="2" fill="#96ceb4" opacity="0.9">
    <animate attributeName="opacity" values="0.2;1;0.2" dur="2s" repeatCount="indefinite"/>
  </circle>
  <circle cx="330" cy="90" r="1.5" fill="#ffeaa7" opacity="0.8">
    <animate attributeName="opacity" values="0.3;1;0.3" dur="1.5s" begin="0.5s" repeatCount="indefinite"/>
  </circle>
  <circle cx="360" cy="70" r="2.5" fill="#fd79a8" opacity="0.7">
    <animate attributeName="opacity" values="0.1;1;0.1" dur="2.5s" begin="1s" repeatCount="indefinite"/>
  </circle>
</svg>